<svg width="42" height="34" viewBox="0 0 42 34" fill="none" xmlns="http://www.w3.org/2000/svg">
<path d="M27.002 7H27M21.002 9H21M21 1C11.754 1 4.13601 4.512 3.11601 13C2.98401 14.1 3.89601 15 5.00001 15H37C38.104 15 39.016 14.1 38.884 13C37.864 4.512 30.246 1 21 1Z" stroke="#D92353" stroke-width="2" stroke-linecap="round" stroke-linejoin="round"/>
<path d="M27 23L33.758 16.242C34.152 15.8481 34.6197 15.5357 35.1345 15.3226C35.6492 15.1095 36.2009 14.9999 36.758 15H37C38.0609 15 39.0783 15.4214 39.8284 16.1716C40.5786 16.9217 41 17.9391 41 19C41 20.0609 40.5786 21.0783 39.8284 21.8284C39.0783 22.5786 38.0609 23 37 23H5C3.93913 23 2.92172 22.5786 2.17157 21.8284C1.42143 21.0783 1 20.0609 1 19C1 17.9391 1.42143 16.9217 2.17157 16.1716C2.92172 15.4214 3.93913 15 5 15H14.03C17.2121 15.0001 20.2638 16.2641 22.514 18.514L27 23ZM3 23H39V27C39 28.5913 38.3679 30.1174 37.2426 31.2426C36.1174 32.3679 34.5913 33 33 33H9C7.4087 33 5.88258 32.3679 4.75736 31.2426C3.63214 30.1174 3 28.5913 3 27V23Z" stroke="#D92353" stroke-width="2" stroke-linecap="round" stroke-linejoin="round"/>
</svg>
