<svg width="800" height="800" viewBox="0 0 800 800" fill="none" xmlns="http://www.w3.org/2000/svg">
<path fill-rule="evenodd" clip-rule="evenodd" d="M733.333 400C733.333 584.094 584.093 733.334 400 733.334C215.905 733.334 66.6667 584.094 66.6667 400C66.6667 215.905 215.905 66.667 400 66.667C584.093 66.667 733.333 215.905 733.333 400ZM534.343 298.989C544.107 308.752 544.107 324.582 534.343 334.344L367.677 501.01C357.913 510.774 342.087 510.774 332.322 501.01L265.656 434.344C255.893 424.58 255.893 408.754 265.656 398.99C275.419 389.227 291.248 389.227 301.011 398.99L350 447.977L424.493 373.484L498.99 298.989C508.753 289.226 524.58 289.226 534.343 298.989Z" fill="#F2F2F2"/>
</svg>
