<svg width="800" height="800" viewBox="0 0 800 800" fill="none" xmlns="http://www.w3.org/2000/svg">
<path fill-rule="evenodd" clip-rule="evenodd" d="M733.333 400C733.333 584.094 584.093 733.334 400 733.334C215.905 733.334 66.6667 584.094 66.6667 400C66.6667 215.905 215.905 66.667 400 66.667C584.093 66.667 733.333 215.905 733.333 400ZM298.988 298.989C308.751 289.226 324.58 289.226 334.343 298.989L400 364.644L465.653 298.989C475.417 289.226 491.247 289.226 501.01 298.989C510.773 308.752 510.773 324.582 501.01 334.344L435.353 400L501.01 465.654C510.773 475.417 510.773 491.247 501.01 501.01C491.247 510.774 475.417 510.774 465.653 501.01L400 435.357L334.343 501.01C324.581 510.774 308.751 510.774 298.988 501.01C289.225 491.247 289.225 475.417 298.988 465.657L364.643 400L298.988 334.344C289.224 324.581 289.224 308.752 298.988 298.989Z" fill="#D92353"/>
</svg>
