<svg width="800" height="800" viewBox="0 0 800 800" fill="none" xmlns="http://www.w3.org/2000/svg">
<path d="M600 50H200C117.157 50 50 117.157 50 200V600C50 682.843 117.157 750 200 750H600C682.843 750 750 682.843 750 600V200C750 117.157 682.843 50 600 50Z" fill="url(#paint0_radial_32_21)"/>
<path d="M600 50H200C117.157 50 50 117.157 50 200V600C50 682.843 117.157 750 200 750H600C682.843 750 750 682.843 750 600V200C750 117.157 682.843 50 600 50Z" fill="url(#paint1_radial_32_21)"/>
<path d="M600 50H200C117.157 50 50 117.157 50 200V600C50 682.843 117.157 750 200 750H600C682.843 750 750 682.843 750 600V200C750 117.157 682.843 50 600 50Z" fill="url(#paint2_radial_32_21)"/>
<path d="M575 262.5C575 283.21 558.21 300 537.5 300C516.79 300 500 283.21 500 262.5C500 241.789 516.79 225 537.5 225C558.21 225 575 241.789 575 262.5Z" fill="white"/>
<path fill-rule="evenodd" clip-rule="evenodd" d="M400 525C469.035 525 525 469.035 525 400C525 330.965 469.035 275 400 275C330.965 275 275 330.965 275 400C275 469.035 330.965 525 400 525ZM400 475C441.423 475 475 441.423 475 400C475 358.577 441.423 325 400 325C358.577 325 325 358.577 325 400C325 441.423 358.577 475 400 475Z" fill="white"/>
<path fill-rule="evenodd" clip-rule="evenodd" d="M150 390C150 305.993 150 263.988 166.349 231.902C180.73 203.677 203.677 180.73 231.902 166.349C263.988 150 305.993 150 390 150H410C494.008 150 536.012 150 568.098 166.349C596.323 180.73 619.27 203.677 633.65 231.902C650 263.988 650 305.993 650 390V410C650 494.008 650 536.012 633.65 568.098C619.27 596.323 596.323 619.27 568.098 633.65C536.012 650 494.008 650 410 650H390C305.993 650 263.988 650 231.902 633.65C203.677 619.27 180.73 596.323 166.349 568.098C150 536.012 150 494.008 150 410V390ZM390 200H410C452.83 200 481.943 200.039 504.448 201.877C526.37 203.668 537.58 206.915 545.4 210.899C564.215 220.487 579.512 235.785 589.1 254.6C593.085 262.42 596.332 273.63 598.122 295.552C599.96 318.057 600 347.17 600 390V410C600 452.83 599.96 481.943 598.122 504.448C596.332 526.37 593.085 537.58 589.1 545.4C579.512 564.215 564.215 579.512 545.4 589.1C537.58 593.085 526.37 596.332 504.448 598.122C481.943 599.96 452.83 600 410 600H390C347.17 600 318.057 599.96 295.552 598.122C273.63 596.332 262.42 593.085 254.6 589.1C235.785 579.512 220.487 564.215 210.899 545.4C206.915 537.58 203.668 526.37 201.877 504.448C200.039 481.943 200 452.83 200 410V390C200 347.17 200.039 318.057 201.877 295.552C203.668 273.63 206.915 262.42 210.899 254.6C220.487 235.785 235.785 220.487 254.6 210.899C262.42 206.915 273.63 203.668 295.552 201.877C318.057 200.039 347.17 200 390 200Z" fill="white"/>
<defs>
<radialGradient id="paint0_radial_32_21" cx="0" cy="0" r="1" gradientUnits="userSpaceOnUse" gradientTransform="translate(300 575) rotate(-55.3758) scale(637.99)">
<stop stop-color="#B13589"/>
<stop offset="0.79309" stop-color="#C62F94"/>
<stop offset="1" stop-color="#8A3AC8"/>
</radialGradient>
<radialGradient id="paint1_radial_32_21" cx="0" cy="0" r="1" gradientUnits="userSpaceOnUse" gradientTransform="translate(275 775) rotate(-65.1363) scale(564.855)">
<stop stop-color="#E0E8B7"/>
<stop offset="0.444662" stop-color="#FB8A2E"/>
<stop offset="0.71474" stop-color="#E2425C"/>
<stop offset="1" stop-color="#E2425C" stop-opacity="0"/>
</radialGradient>
<radialGradient id="paint2_radial_32_21" cx="0" cy="0" r="1" gradientUnits="userSpaceOnUse" gradientTransform="translate(12.5 75) rotate(-8.1301) scale(972.273 207.959)">
<stop offset="0.156701" stop-color="#406ADC"/>
<stop offset="0.467799" stop-color="#6A45BE"/>
<stop offset="1" stop-color="#6A45BE" stop-opacity="0"/>
</radialGradient>
</defs>
</svg>
