<svg width="800" height="800" viewBox="0 0 800 800" fill="none" xmlns="http://www.w3.org/2000/svg">
<path d="M800 400C800 479.112 776.54 556.448 732.588 622.228C688.635 688.008 626.164 739.277 553.073 769.552C479.983 799.827 399.556 807.748 321.964 792.314C244.372 776.88 173.098 738.784 117.157 682.843C61.2165 626.902 23.1201 555.628 7.68607 478.036C-7.74802 400.444 0.173312 320.017 30.4484 246.927C60.7234 173.836 111.992 111.365 177.772 67.4121C243.552 23.4596 320.888 0 400 0C506.087 0 607.828 42.1427 682.843 117.157C757.857 192.172 800 293.913 800 400ZM651.5 400.3C651.5 350.558 636.75 301.933 609.115 260.574C581.479 219.215 542.201 186.98 496.245 167.944C450.289 148.909 399.721 143.928 350.935 153.632C302.149 163.337 257.336 187.29 222.163 222.463C186.99 257.636 163.037 302.448 153.333 351.235C143.628 400.021 148.609 450.589 167.644 496.545C186.68 542.5 218.915 581.779 260.274 609.414C301.633 637.05 350.258 651.8 400 651.8C433.028 651.8 465.732 645.295 496.245 632.656C526.758 620.017 554.484 601.491 577.837 578.137C601.191 554.783 619.717 527.058 632.356 496.545C644.995 466.031 651.5 433.327 651.5 400.3ZM282.35 380.3H189.45C193.085 342.296 206.921 305.981 229.496 275.194C252.072 244.407 282.547 220.292 317.7 205.4C321.033 204 324.367 202.683 327.7 201.45C298.314 256.511 282.751 317.889 282.35 380.3ZM282.35 420.3C282.762 482.715 298.343 544.095 327.75 599.15C324.35 597.917 321 596.6 317.7 595.2C282.51 580.362 252 556.262 229.417 525.465C206.833 494.667 193.021 458.323 189.45 420.3H282.35ZM322.35 380.3C323.236 356.757 325.961 333.318 330.5 310.2C335.042 285.807 342.513 262.052 352.75 239.45C367.2 208.7 385.75 188.8 400 188.8C414.25 188.8 432.8 208.7 447.25 239.45C457.48 262.054 464.951 285.809 469.5 310.2C474.032 333.32 476.757 356.757 477.65 380.3H322.35ZM477.65 420.3C476.758 443.843 474.033 467.28 469.5 490.4C464.948 514.79 457.477 538.544 447.25 561.15C432.8 591.95 414.25 611.8 400 611.8C385.75 611.8 367.2 591.95 352.75 561.15C342.516 538.547 335.046 514.792 330.5 490.4C325.96 467.281 323.235 443.843 322.35 420.3H477.65ZM549.55 250.75C584.394 285.48 605.976 331.316 610.55 380.3H517.65C517.242 317.884 501.661 256.504 472.25 201.45C475.65 202.683 479 204.017 482.3 205.45C507.442 216.047 530.283 231.432 549.55 250.75ZM517.65 420.3H610.55C606.91 458.302 593.072 494.615 570.497 525.401C547.922 556.188 517.45 580.303 482.3 595.2C478.967 596.633 475.633 597.967 472.3 599.2C501.704 544.128 517.268 482.729 517.65 420.3Z" fill="white"/>
</svg>
