<svg width="800" height="800" viewBox="0 0 800 800" fill="none" xmlns="http://www.w3.org/2000/svg">
<g clip-path="url(#clip0_32_22)">
<path fill-rule="evenodd" clip-rule="evenodd" d="M317.4 504.499L317.375 278.129L533.525 391.704L317.4 504.499ZM792 238.903C792 238.903 784.175 183.387 760.2 158.94C729.775 126.839 695.675 126.687 680.05 124.824C568.1 116.667 400.175 116.667 400.175 116.667H399.825C399.825 116.667 231.9 116.667 119.95 124.824C104.3 126.687 70.2251 126.839 39.7751 158.94C15.8001 183.387 7.99993 238.903 7.99993 238.903C7.99993 238.903 0 304.112 0 369.296V430.427C0 495.636 7.99993 560.821 7.99993 560.821C7.99993 560.821 15.8001 616.337 39.7751 640.784C70.2251 672.885 110.2 671.878 128 675.226C192 681.42 400 683.333 400 683.333C400 683.333 568.1 683.082 680.05 674.924C695.675 673.036 729.775 672.885 760.2 640.784C784.175 616.337 792 560.821 792 560.821C792 560.821 800 495.636 800 430.427V369.296C800 304.112 792 238.903 792 238.903Z" fill="#CE1312"/>
</g>
<defs>
<clipPath id="clip0_32_22">
<rect width="800" height="800" fill="white"/>
</clipPath>
</defs>
</svg>
